<svg width="880" height="236" viewBox="0 0 880 236" fill="none" xmlns="http://www.w3.org/2000/svg" role="img" aria-labelledby="title desc">
  <title id="title">Dog Park Meetup logo</title>
  <desc id="desc">Dog Park Meetup horizontal logo with two dogs meeting at a fenced park.</desc>
  <rect width="880" height="236" rx="34" fill="#FFFFFF"/>
  <g transform="translate(28 26) scale(.72)">
    <rect width="256" height="256" rx="54" fill="#065F46"/>
    <path d="M28 154C54 122 84 108 119 112C154 116 181 104 228 76V202H28V154Z" fill="#86EFAC"/>
    <path d="M28 132C61 100 95 89 130 99C160 108 189 91 228 56V142C190 169 158 177 128 166C93 153 60 163 28 195V132Z" fill="#BAE6FD"/>
    <path d="M50 142H206" stroke="#064E3B" stroke-width="10" stroke-linecap="round"/>
    <path d="M64 116V194M98 112V194M158 112V194M192 100V194" stroke="#064E3B" stroke-width="10" stroke-linecap="round"/>
    <path d="M128 42C149 42 166 59 166 80C166 108 128 136 128 136C128 136 90 108 90 80C90 59 107 42 128 42Z" fill="#F59E0B"/>
    <circle cx="128" cy="80" r="17" fill="#064E3B"/>
    <path d="M84 161C84 145 96 132 112 132H123C139 132 151 145 151 161V186H84V161Z" fill="#FFF7ED" stroke="#064E3B" stroke-width="7"/>
    <path d="M102 137L91 121M131 137L145 121" stroke="#064E3B" stroke-width="8" stroke-linecap="round"/>
    <circle cx="106" cy="159" r="5" fill="#064E3B"/>
    <circle cx="128" cy="159" r="5" fill="#064E3B"/>
    <path d="M138 178C138 160 151 146 169 146H178C196 146 209 160 209 178V196H138V178Z" fill="#FDE68A" stroke="#064E3B" stroke-width="7"/>
    <path d="M158 150L148 133M186 150L199 135" stroke="#064E3B" stroke-width="8" stroke-linecap="round"/>
    <circle cx="164" cy="173" r="5" fill="#064E3B"/>
    <circle cx="185" cy="173" r="5" fill="#064E3B"/>
  </g>
  <text x="238" y="99" fill="#064E3B" font-family="Inter, ui-sans-serif, system-ui, -apple-system, BlinkMacSystemFont, Segoe UI, sans-serif" font-size="60" font-weight="900" letter-spacing="0">Dog Park Meetup</text>
  <text x="242" y="148" fill="#334155" font-family="Inter, ui-sans-serif, system-ui, -apple-system, BlinkMacSystemFont, Segoe UI, sans-serif" font-size="25" font-weight="800" letter-spacing="0">Pick the best park window for your dog.</text>
  <path d="M244 178H604" stroke="#86EFAC" stroke-width="10" stroke-linecap="round"/>
  <path d="M628 178H704" stroke="#F59E0B" stroke-width="10" stroke-linecap="round"/>
</svg>
